{"title":"Baahubali 2015 Hindi Movies Non Retail DVDRip XviD +Sample â˜»rDXâ˜»","uid":12112445,"size":739553473,"categoryP":"video","categoryS":"movies","magnet":"?xt=urn:btih:1e67f4b4f877ed4f393502789de3ac8786172d7e&amp;dn=Baahubali+2015+Hindi+Movies+Non+Retail+DVDRip+XviD+%2BSample+%E2%98%BBrDX%E2%98%BB&amp;tr=udp%3A%2F%2Ftracker.openbittorrent.com%3A80&amp;tr=udp%3A%2F%2Fopen.demonii.com%3A1337&amp;tr=udp%3A%2F%2Ftracker.coppersurfer.tk%3A6969&amp;tr=udp%3A%2F%2Fexodus.desync.com%3A6969","seeders":5,"leechers":2,"uploader":"basicssom","files":2,"time":1436610460,"description":"----------------------------------------------------------------\nBaahubali 2015 Hindi Movies Non Retail DVDRip XviD AAC with Sample ~ â˜»rDXâ˜»\n\nSCREEN SHOTS &amp; POSTER:\n &lt;a href=&quot;\nhttp://imagehosting4u.com/2015/7/Baahubalind/11.html&quot; rel=&quot;nofollow&quot; target=&quot;_NEW&quot;&gt;\nhttp://imagehosting4u.com/2015/7/Baahubalind/11.html&lt;/a&gt; &lt;a href=&quot;\nhttp://imagehosting4u.com/2015/7/Baahubalind/1.html&quot; rel=&quot;nofollow&quot; target=&quot;_NEW&quot;&gt;\nhttp://imagehosting4u.com/2015/7/Baahubalind/1.html&lt;/a&gt; &lt;a href=&quot;\nhttp://imagehosting4u.com/2015/7/Baahubalind/2.html&quot; rel=&quot;nofollow&quot; target=&quot;_NEW&quot;&gt;\nhttp://imagehosting4u.com/2015/7/Baahubalind/2.html&lt;/a&gt; &lt;a href=&quot;\nhttp://imagehosting4u.com/2015/7/Baahubalind/3.html&quot; rel=&quot;nofollow&quot; target=&quot;_NEW&quot;&gt;\nhttp://imagehosting4u.com/2015/7/Baahubalind/3.html&lt;/a&gt; &lt;a href=&quot;\nhttp://imagehosting4u.com/2015/7/Baahubalind/4.html&quot; rel=&quot;nofollow&quot; target=&quot;_NEW&quot;&gt;\nhttp://imagehosting4u.com/2015/7/Baahubalind/4.html&lt;/a&gt; &lt;a href=&quot;\nhttp://imagehosting4u.com/2015/7/Baahubalind/5.html&quot; rel=&quot;nofollow&quot; target=&quot;_NEW&quot;&gt;\nhttp://imagehosting4u.com/2015/7/Baahubalind/5.html&lt;/a&gt; &lt;a href=&quot;\nhttp://imagehosting4u.com/2015/7/Baahubalind/6.html&quot; rel=&quot;nofollow&quot; target=&quot;_NEW&quot;&gt;\nhttp://imagehosting4u.com/2015/7/Baahubalind/6.html&lt;/a&gt; &lt;a href=&quot;\nhttp://imagehosting4u.com/2015/7/Baahubalind/7.html&quot; rel=&quot;nofollow&quot; target=&quot;_NEW&quot;&gt;\nhttp://imagehosting4u.com/2015/7/Baahubalind/7.html&lt;/a&gt; &lt;a href=&quot;\nhttp://imagehosting4u.com/2015/7/Baahubalind/8.html&quot; rel=&quot;nofollow&quot; target=&quot;_NEW&quot;&gt;\nhttp://imagehosting4u.com/2015/7/Baahubalind/8.html&lt;/a&gt; &lt;a href=&quot;\nhttp://imagehosting4u.com/2015/7/Baahubalind/9.html&quot; rel=&quot;nofollow&quot; target=&quot;_NEW&quot;&gt;\nhttp://imagehosting4u.com/2015/7/Baahubalind/9.html&lt;/a&gt; &lt;a href=&quot;\nhttp://imagehosting4u.com/2015/7/Baahubalind/10.html&quot; rel=&quot;nofollow&quot; target=&quot;_NEW&quot;&gt;\nhttp://imagehosting4u.com/2015/7/Baahubalind/10.html&lt;/a&gt;\n\nFormat                                   : Matroska\nFormat version                           : Version 4 / Version 2\nFile size                                : 696 MiB\nDuration                                 : 2h 33mn\nOverall bit rate                         : 633 Kbps\nMovie name                               : Baahubali 2015 Hindi Movies Non Retail DVDRip XviD AAC ~ rDX ~\n\nVideo\nID                                       : 1\nFormat                                   : MPEG-4 Visual\nFormat profile                           : Advanced Simple@L5\nFormat settings, BVOP                    : Yes\nFormat settings, QPel                    : Yes\nFormat settings, GMC                     : No warppoints\nFormat settings, Matrix                  : Default (H.263)\nCodec ID                                 : V_MS/VFW/FOURCC / XVID\nCodec ID/Hint                            : XviD\nDuration                                 : 2h 33mn\nBit rate                                 : 557 Kbps\nWidth                                    : 640 pixels\nHeight                                   : 252 pixels\nDisplay aspect ratio                     : 2.540\nFrame rate mode                          : Constant\nFrame rate                               : 25.000 fps\nColor space                              : YUV\nChroma subsampling                       : 4:2:0\nBit depth                                : 8 bits\nScan type                                : Progressive\nCompression mode                         : Lossy\nBits/(Pixel*Frame)                       : 0.138\nStream size                              : 612 MiB (88%)\nTitle                                    : ~ rDX ~\nWriting library                          : XviD 1.2.1 (UTC 2008-12-04)\nDefault                                  : Yes\nForced                                   : No\n\nAudio\nID                                       : 2\nFormat                                   : MPEG Audio\nFormat version                           : Version 2\nFormat profile                           : Layer 3\nMode                                     : Joint stereo\nMode extension                           : MS Stereo\nCodec ID                                 : A_MPEG/L3\nCodec ID/Hint                            : MP3\nDuration                                 : 2h 33mn\nBit rate mode                            : Constant\nBit rate                                 : 64.0 Kbps\nChannel(s)                               : 2 channels\nSampling rate                            : 24.0 KHz\nCompression mode                         : Lossy\nStream size                              : 70.4 MiB (10%)\nTitle                                    : ~ rDX ~\nWriting library                          : LAME3.99r\nEncoding settings                        : -m j -V 4 -q 2 -lowpass 11 -b 64\nDefault                                  : Yes\nForced                                   : No","torrent":{"xt":"urn:btih:1e67f4b4f877ed4f393502789de3ac8786172d7e","amp;dn":"Baahubali+2015+Hindi+Movies+Non+Retail+DVDRip+XviD+%2BSample+%E2%98%BBrDX%E2%98%BB","amp;tr":["udp%3A%2F%2Ftracker.openbittorrent.com%3A80","udp%3A%2F%2Fopen.demonii.com%3A1337","udp%3A%2F%2Ftracker.coppersurfer.tk%3A6969","udp%3A%2F%2Fexodus.desync.com%3A6969"],"infoHash":"1e67f4b4f877ed4f393502789de3ac8786172d7e","infoHashBuffer":{"type":"Buffer","data":[30,103,244,180,248,119,237,79,57,53,2,120,157,227,172,135,134,23,45,126]},"announce":[],"urlList":[]}}